<?xml version="1.0" encoding="UTF-8" standalone="no"?>
<svg
   width="841mm"
   height="594mm"
   viewBox="0 0 3178.5827 2245.0394"
   fill="none"
   version="1.1"
   id="svg4"
   sodipodi:docname="printspots_2.svg"
   inkscape:version="1.4 (e7c3feb1, 2024-10-09)"
   inkscape:export-filename="printspots_2.pdf"
   inkscape:export-xdpi="300"
   inkscape:export-ydpi="300"
   xmlns:inkscape="http://www.inkscape.org/namespaces/inkscape"
   xmlns:sodipodi="http://sodipodi.sourceforge.net/DTD/sodipodi-0.dtd"
   xmlns="http://www.w3.org/2000/svg"
   xmlns:svg="http://www.w3.org/2000/svg">
  <defs
     id="defs4" />
  <sodipodi:namedview
     id="namedview4"
     pagecolor="#ffffff"
     bordercolor="#000000"
     borderopacity="0.25"
     inkscape:showpageshadow="2"
     inkscape:pageopacity="0.0"
     inkscape:pagecheckerboard="0"
     inkscape:deskcolor="#d1d1d1"
     showgrid="false"
     inkscape:zoom="0.48946023"
     inkscape:cx="1476.1158"
     inkscape:cy="1188.0434"
     inkscape:window-width="2368"
     inkscape:window-height="1002"
     inkscape:window-x="0"
     inkscape:window-y="31"
     inkscape:window-maximized="0"
     inkscape:current-layer="svg4"
     inkscape:document-units="mm" />
  <g
     id="g4"
     transform="matrix(9.7092678,0,0,9.7092678,38.210127,802.11385)">
    <rect
       x="0"
       y="0"
       width="60"
       height="15"
       rx="3"
       ry="3"
       fill="#4ecdc4"
       id="rect1" />
    <rect
       x="0"
       y="17"
       width="60"
       height="15"
       rx="3"
       ry="3"
       fill="#ff6b6b"
       id="rect2" />
    <rect
       x="0"
       y="34"
       width="60"
       height="15"
       rx="3"
       ry="3"
       fill="#ffe66d"
       id="rect3" />
    <rect
       x="0"
       y="51"
       width="60"
       height="15"
       rx="3"
       ry="3"
       fill="#000000"
       id="rect4" />
    <path
       d="m 91.009915,26.53367 q 0,2.526874 -0.757036,4.952672 -0.757038,2.40053 -2.162963,4.042997 -1.925037,2.223648 -4.304297,3.360739 -2.357629,1.137095 -5.883257,1.137095 H 72.732881 V 52.282505 H 64.427104 V 14.657367 h 13.669924 q 3.071407,0 5.169481,0.631719 2.119703,0.606449 3.741926,1.844617 1.946665,1.490855 2.963258,3.815578 1.038222,2.324725 1.038222,5.584389 z m -8.586961,0.227418 q 0,-1.591929 -0.735409,-2.72902 -0.735407,-1.162362 -1.70874,-1.6172 -1.297778,-0.606449 -2.530664,-0.656986 -1.23289,-0.0758 -3.287706,-0.0758 h -1.427554 v 11.269854 h 2.37926 q 2.119703,0 3.482368,-0.303224 1.384296,-0.303226 2.314371,-1.212899 0.800296,-0.808599 1.14637,-1.920425 0.367704,-1.137091 0.367704,-2.754291 z m 31.644146,5.811809 h -0.69215 q -0.49749,-0.202149 -1.6006,-0.303225 -1.1031,-0.101077 -1.83851,-0.101077 -1.66549,0 -2.94163,0.252687 -1.27615,0.252687 -2.74696,0.859136 V 52.282505 H 96.46058 V 23.905723 h 7.78667 v 4.169342 q 2.57392,-2.577413 4.47733,-3.41128 1.90341,-0.859136 3.504,-0.859136 0.41097,0 0.93008,0.02528 0.51911,0.02528 0.90844,0.0758 z m 12.19911,19.709608 h -7.78666 V 23.905723 h 7.78666 z m 0.21629,-32.419778 h -8.21926 v -6.898364 h 8.21926 z m 31.53599,32.419778 h -7.82991 V 38.207824 q 0,-1.718273 -0.15141,-3.411279 -0.15142,-1.718274 -0.51912,-2.526873 -0.43258,-0.934944 -1.27615,-1.36451 -0.82192,-0.42957 -2.31436,-0.42957 -1.05985,0 -2.16297,0.404301 -1.08147,0.404299 -2.35762,1.288705 v 20.113907 h -7.78667 V 23.905723 h 7.78667 v 3.133322 q 2.07644,-1.895155 3.97985,-2.905903 1.92504,-1.01075 4.26102,-1.01075 3.93662,0 6.14283,2.678486 2.22784,2.678485 2.22784,8.010186 z m 22.68949,-0.252686 q -1.25452,0.379031 -2.66045,0.581181 -1.40594,0.227419 -3.43911,0.227419 -4.54223,0 -6.77008,-2.147843 -2.20621,-2.147841 -2.20621,-7.353201 V 30.071292 h -3.2012 v -6.165569 h 3.2012 v -8.111262 h 7.78666 v 8.111262 h 7.28919 v 6.165569 h -7.28919 v 10.056955 q 0,1.490855 0.0216,2.60268 0.0216,1.111824 0.34607,1.996228 0.30281,0.884407 1.05985,1.41505 0.77867,0.505374 2.24947,0.505374 0.60564,0 1.57897,-0.303224 0.99498,-0.303224 1.38431,-0.555912 h 0.64893 z m 30.86549,-11.573078 q 0,5.559121 -4.04475,9.046205 -4.02311,3.461816 -10.94459,3.461816 -4.00149,0 -6.98638,-0.808599 -2.96325,-0.833868 -5.5588,-2.097304 v -9.020937 h 0.90843 q 2.57393,2.400529 5.75348,3.689233 3.20119,1.288707 6.14282,1.288707 0.75705,0 1.98992,-0.151608 1.23289,-0.151608 2.01156,-0.505374 0.9517,-0.454839 1.55733,-1.137095 0.62727,-0.682254 0.62727,-2.021498 0,-1.238166 -0.90846,-2.122572 -0.8868,-0.909675 -2.61717,-1.38978 -1.81688,-0.505374 -3.85008,-0.934944 -2.01155,-0.454837 -3.78518,-1.137093 -4.06637,-1.541392 -5.86163,-4.16934 -1.77363,-2.653217 -1.77363,-6.569869 0,-5.255896 4.02311,-8.5661 4.04474,-3.335471 10.38221,-3.335471 3.17956,0 6.2726,0.732792 3.11467,0.707524 5.38579,1.79408 v 8.667174 h -0.88682 q -1.94666,-1.819348 -4.78014,-3.032247 -2.81187,-1.238168 -5.7535,-1.238168 -1.03821,0 -2.07643,0.176881 -1.0166,0.151608 -1.9683,0.60645 -0.84357,0.379031 -1.4492,1.162361 -0.60561,0.758062 -0.60561,1.743543 0,1.490854 0.97331,2.299453 0.97334,0.783332 3.67705,1.44032 1.77362,0.429566 3.39586,0.833867 1.64385,0.404298 3.52561,1.111824 3.69868,1.415048 5.45067,3.866116 1.77365,2.425797 1.77365,6.317183 z m 30.60591,-2.754291 q 0,3.512353 -0.93008,6.392988 -0.90844,2.880634 -2.40088,4.750521 -1.55733,1.970962 -3.52563,2.98171 -1.9683,1.01075 -4.21778,1.01075 -2.07646,0 -3.52562,-0.530643 -1.4492,-0.505375 -2.96327,-1.440318 v 11.825765 h -7.78666 v -38.7875 h 7.78666 v 2.956442 q 1.79526,-1.667738 3.65541,-2.703755 1.88177,-1.036018 4.32593,-1.036018 4.54223,0 7.05125,3.891384 2.53067,3.891386 2.53067,10.688674 z m -8.0246,0.17688 q 0,-4.144071 -1.21125,-6.013957 -1.21127,-1.869887 -3.82845,-1.869887 -1.10311,0 -2.2711,0.4043 -1.16801,0.379031 -2.22786,1.111824 v 14.276833 q 0.77866,0.353762 1.66548,0.454836 0.88681,0.101077 1.75201,0.101077 3.09303,0 4.60711,-2.097303 1.51406,-2.122575 1.51406,-6.367721 z m 38.47912,0.227419 q 0,6.999438 -3.50401,11.042435 -3.48236,4.017728 -9.79823,4.017728 -6.31584,0 -9.81983,-4.017728 -3.48237,-4.042997 -3.48237,-11.042435 0,-7.049976 3.50399,-11.067704 3.52563,-4.017727 9.79821,-4.017727 6.35913,0 9.81987,4.042997 3.48237,4.042996 3.48237,11.042434 z m -9.58194,6.898364 q 0.75705,-1.086557 1.12475,-2.60268 0.38933,-1.541393 0.38933,-4.245147 0,-2.501604 -0.38933,-4.194608 -0.38932,-1.693006 -1.08147,-2.703756 -0.69217,-1.036017 -1.66549,-1.465585 -0.97334,-0.429568 -2.09809,-0.429568 -1.12473,0 -2.01154,0.353761 -0.86518,0.353762 -1.66548,1.415051 -0.71378,0.98548 -1.14638,2.703752 -0.41096,1.718274 -0.41096,4.320953 0,2.324724 0.36771,4.042996 0.3677,1.693006 1.08147,2.729024 0.69215,0.98548 1.64385,1.440318 0.97334,0.454837 2.20622,0.454837 1.05986,0 2.01156,-0.4043 0.97334,-0.42957 1.64385,-1.415048 z m 30.69243,7.024706 q -1.25451,0.379031 -2.66043,0.581181 -1.40594,0.227419 -3.43912,0.227419 -4.54222,0 -6.77008,-2.147843 -2.20622,-2.147841 -2.20622,-7.353201 V 30.071292 h -3.20118 v -6.165569 h 3.20118 v -8.111262 h 7.78668 v 8.111262 h 7.28917 v 6.165569 h -7.28917 v 10.056955 q 0,1.490855 0.0216,2.60268 0.0216,1.111824 0.34609,1.996228 0.30282,0.884407 1.05984,1.41505 0.77867,0.505374 2.24949,0.505374 0.60562,0 1.57896,-0.303224 0.99496,-0.303224 1.3843,-0.555912 h 0.64889 z m 25.7609,-8.742981 q 0,4.396759 -3.37424,7.100513 -3.37422,2.678487 -9.23583,2.678487 -3.24444,0 -5.88326,-0.707525 -2.63882,-0.707526 -4.23941,-1.566662 v -7.479543 h 0.71378 q 0.58399,0.480106 1.34103,1.061285 0.77867,0.555913 2.1846,1.212899 1.21126,0.581181 2.74695,1.01075 1.53571,0.404299 3.28772,0.404299 2.29273,0 3.39584,-0.58118 1.10312,-0.606448 1.10312,-1.768811 0,-1.036017 -0.6489,-1.490856 -0.64889,-0.480105 -2.46578,-0.909673 -0.86518,-0.227419 -2.35762,-0.480105 -1.47081,-0.277957 -2.68208,-0.656988 -3.30933,-1.01075 -4.90992,-3.133323 -1.6006,-2.147843 -1.6006,-5.331702 0,-4.093535 3.30933,-6.797288 3.33096,-2.729023 9.08444,-2.729023 2.72535,0 5.21274,0.656988 2.50905,0.631717 3.91498,1.36451 v 7.176319 h -0.67052 q -1.73037,-1.389779 -3.95823,-2.248917 -2.20623,-0.884405 -4.47733,-0.884405 -1.88178,0 -3.17957,0.60645 -1.27612,0.606449 -1.27612,1.718273 0,1.01075 0.58399,1.541392 0.584,0.530643 2.74696,1.061287 1.18963,0.277957 2.5523,0.555913 1.38428,0.252687 2.7686,0.656986 3.07139,0.934944 4.54221,2.956442 1.47082,1.996229 1.47082,5.003208 z"
       id="text4"
       style="font-weight:bold;font-size:32.1067px;font-family:Montserrat, sans-serif;fill:#4ecdc4;stroke-width:1.59597"
       aria-label="PrintSpots" />
  </g>
</svg>
